<svg fill="none" height="24" viewBox="0 0 24 24" width="24" xmlns="http://www.w3.org/2000/svg" xmlns:xlink="http://www.w3.org/1999/xlink"><linearGradient id="a"><stop offset="0" stop-color="#fff"/><stop offset="1" stop-color="#fff" stop-opacity="0"/></linearGradient><linearGradient id="b" gradientUnits="userSpaceOnUse" x1="11.9996" x2="11.9996" xlink:href="#a" y1=".57305" y2="23.2103"/><radialGradient id="c" cx="0" cy="0" gradientTransform="matrix(22.7453 22.6373 -6.02829 16.9286 .626953 .573048)" gradientUnits="userSpaceOnUse" r="1" xlink:href="#a"/><linearGradient id="d" gradientUnits="userSpaceOnUse" x1="11.9996" x2="11.9996" y1=".573048" y2="23.2103"><stop offset="0" stop-opacity="0"/><stop offset="1" stop-opacity=".16"/></linearGradient><clipPath id="e"><path d="m0 0h24v24h-24z"/></clipPath><clipPath id="f"><path d="m0 0h24v24h-24z"/></clipPath><g clip-path="url(#e)"><g clip-path="url(#f)"><path d="m11.1709 1.20488c.4636-.44224 1.1936-.442242 1.6572 0l.416.39746c.4922.46936 1.2072.62118 1.8477.39258l.542-.19336c.5657-.20194 1.1866.04554 1.4629.56543l.0508.1084.2187.53125v.00098c.2589.62876.8502 1.05776 1.5283 1.10937l.5733.04395c.6389.04862 1.1269.59102 1.1084 1.23144l-.0166.5752c-.0195.67976.3459 1.31273.9443 1.63574l.5068.27344c.5638.30433.789.99767.5118 1.57519l-.2491.51856c-.2942.61319-.2181 1.34029.1973 1.87889l.3516.4551c.3913.5072.3152 1.2325-.1729 1.6475l-.4385.373c-.5182.4403-.7443 1.1349-.5839 1.7959l.1357.5596c.1512.6225-.2133 1.254-.8281 1.4345l-.5518.1621c-.6526.1915-1.1423.7344-1.2646 1.4034l-.1036.5664c-.1152.6302-.7048 1.0588-1.3398.9736l-.5703-.0762c-.6742-.0905-1.3417.2062-1.7256.7676l-.3242.4756c-.3615.5289-1.0756.6799-1.6211.3438l-.4893-.3018c-.579-.357-1.3105-.357-1.8896 0l-.4893.3018c-.5453.336-1.2585.1849-1.62009-.3438l-.32519-.4756c-.38385-.5613-1.05152-.8581-1.72559-.7676l-.57031.0762c-.63498.0851-1.2247-.3435-1.33984-.9736l-.10352-.5664c-.12229-.6689-.61123-1.2118-1.26367-1.4034l-.55274-.1621c-.61468-.1806-.97927-.8121-.82812-1.4345l.13574-.5596c.16034-.661-.06569-1.3555-.58398-1.7959l-.43848-.373c-.487957-.415-.564118-1.1403-.17285-1.6475l.35156-.4551c.41548-.5386.4917-1.2657.19727-1.87889l-.24903-.51856c-.27726-.57745-.05185-1.27081.51172-1.57519l.50684-.27344c.59852-.32298.96379-.95592.94433-1.63574l-.0166-.5752c-.01842-.64043.46957-1.18277 1.1084-1.23144l.57422-.04395c.6781-.05175 1.26871-.48136 1.52734-1.11035l.21973-.53125c.24365-.59257.90929-.88923 1.51269-.67383l.542.19336c.6405.22869 1.35547.07673 1.84767-.39258z" fill="#d29016"/><path d="m11.1709 1.20488c.4636-.44224 1.1936-.442242 1.6572 0l.416.39746c.4922.46936 1.2072.62118 1.8477.39258l.542-.19336c.5657-.20194 1.1866.04554 1.4629.56543l.0508.1084.2187.53125v.00098c.2589.62876.8502 1.05776 1.5283 1.10937l.5733.04395c.6389.04862 1.1269.59102 1.1084 1.23144l-.0166.5752c-.0195.67976.3459 1.31273.9443 1.63574l.5068.27344c.5638.30433.789.99767.5118 1.57519l-.2491.51856c-.2942.61319-.2181 1.34029.1973 1.87889l.3516.4551c.3913.5072.3152 1.2325-.1729 1.6475l-.4385.373c-.5182.4403-.7443 1.1349-.5839 1.7959l.1357.5596c.1512.6225-.2133 1.254-.8281 1.4345l-.5518.1621c-.6526.1915-1.1423.7344-1.2646 1.4034l-.1036.5664c-.1152.6302-.7048 1.0588-1.3398.9736l-.5703-.0762c-.6742-.0905-1.3417.2062-1.7256.7676l-.3242.4756c-.3615.5289-1.0756.6799-1.6211.3438l-.4893-.3018c-.579-.357-1.3105-.357-1.8896 0l-.4893.3018c-.5453.336-1.2585.1849-1.62009-.3438l-.32519-.4756c-.38385-.5613-1.05152-.8581-1.72559-.7676l-.57031.0762c-.63498.0851-1.2247-.3435-1.33984-.9736l-.10352-.5664c-.12229-.6689-.61123-1.2118-1.26367-1.4034l-.55274-.1621c-.61468-.1806-.97927-.8121-.82812-1.4345l.13574-.5596c.16034-.661-.06569-1.3555-.58398-1.7959l-.43848-.373c-.487957-.415-.564118-1.1403-.17285-1.6475l.35156-.4551c.41548-.5386.4917-1.2657.19727-1.87889l-.24903-.51856c-.27726-.57745-.05185-1.27081.51172-1.57519l.50684-.27344c.59852-.32298.96379-.95592.94433-1.63574l-.0166-.5752c-.01842-.64043.46957-1.18277 1.1084-1.23144l.57422-.04395c.6781-.05175 1.26871-.48136 1.52734-1.11035l.21973-.53125c.24365-.59257.90929-.88923 1.51269-.67383l.542.19336c.6405.22869 1.35547.07673 1.84767-.39258z" fill="url(#b)" fill-opacity=".2"/><path d="m11.1709 1.20488c.4636-.44224 1.1936-.442242 1.6572 0l.416.39746c.4922.46936 1.2072.62118 1.8477.39258l.542-.19336c.5657-.20194 1.1866.04554 1.4629.56543l.0508.1084.2187.53125v.00098c.2589.62876.8502 1.05776 1.5283 1.10937l.5733.04395c.6389.04862 1.1269.59102 1.1084 1.23144l-.0166.5752c-.0195.67976.3459 1.31273.9443 1.63574l.5068.27344c.5638.30433.789.99767.5118 1.57519l-.2491.51856c-.2942.61319-.2181 1.34029.1973 1.87889l.3516.4551c.3913.5072.3152 1.2325-.1729 1.6475l-.4385.373c-.5182.4403-.7443 1.1349-.5839 1.7959l.1357.5596c.1512.6225-.2133 1.254-.8281 1.4345l-.5518.1621c-.6526.1915-1.1423.7344-1.2646 1.4034l-.1036.5664c-.1152.6302-.7048 1.0588-1.3398.9736l-.5703-.0762c-.6742-.0905-1.3417.2062-1.7256.7676l-.3242.4756c-.3615.5289-1.0756.6799-1.6211.3438l-.4893-.3018c-.579-.357-1.3105-.357-1.8896 0l-.4893.3018c-.5453.336-1.2585.1849-1.62009-.3438l-.32519-.4756c-.38385-.5613-1.05152-.8581-1.72559-.7676l-.57031.0762c-.63498.0851-1.2247-.3435-1.33984-.9736l-.10352-.5664c-.12229-.6689-.61123-1.2118-1.26367-1.4034l-.55274-.1621c-.61468-.1806-.97927-.8121-.82812-1.4345l.13574-.5596c.16034-.661-.06569-1.3555-.58398-1.7959l-.43848-.373c-.487957-.415-.564118-1.1403-.17285-1.6475l.35156-.4551c.41548-.5386.4917-1.2657.19727-1.87889l-.24903-.51856c-.27726-.57745-.05185-1.27081.51172-1.57519l.50684-.27344c.59852-.32298.96379-.95592.94433-1.63574l-.0166-.5752c-.01842-.64043.46957-1.18277 1.1084-1.23144l.57422-.04395c.6781-.05175 1.26871-.48136 1.52734-1.11035l.21973-.53125c.24365-.59257.90929-.88923 1.51269-.67383l.542.19336c.6405.22869 1.35547.07673 1.84767-.39258z" fill="url(#c)" fill-opacity=".55"/><path d="m11.1709 1.20488c.4636-.44224 1.1936-.442242 1.6572 0l.416.39746c.4922.46936 1.2072.62118 1.8477.39258l.542-.19336c.5657-.20194 1.1866.04554 1.4629.56543l.0508.1084.2187.53125v.00098c.2589.62876.8502 1.05776 1.5283 1.10937l.5733.04395c.6389.04862 1.1269.59102 1.1084 1.23144l-.0166.5752c-.0195.67976.3459 1.31273.9443 1.63574l.5068.27344c.5638.30433.789.99767.5118 1.57519l-.2491.51856c-.2942.61319-.2181 1.34029.1973 1.87889l.3516.4551c.3913.5072.3152 1.2325-.1729 1.6475l-.4385.373c-.5182.4403-.7443 1.1349-.5839 1.7959l.1357.5596c.1512.6225-.2133 1.254-.8281 1.4345l-.5518.1621c-.6526.1915-1.1423.7344-1.2646 1.4034l-.1036.5664c-.1152.6302-.7048 1.0588-1.3398.9736l-.5703-.0762c-.6742-.0905-1.3417.2062-1.7256.7676l-.3242.4756c-.3615.5289-1.0756.6799-1.6211.3438l-.4893-.3018c-.579-.357-1.3105-.357-1.8896 0l-.4893.3018c-.5453.336-1.2585.1849-1.62009-.3438l-.32519-.4756c-.38385-.5613-1.05152-.8581-1.72559-.7676l-.57031.0762c-.63498.0851-1.2247-.3435-1.33984-.9736l-.10352-.5664c-.12229-.6689-.61123-1.2118-1.26367-1.4034l-.55274-.1621c-.61468-.1806-.97927-.8121-.82812-1.4345l.13574-.5596c.16034-.661-.06569-1.3555-.58398-1.7959l-.43848-.373c-.487957-.415-.564118-1.1403-.17285-1.6475l.35156-.4551c.41548-.5386.4917-1.2657.19727-1.87889l-.24903-.51856c-.27726-.57745-.05185-1.27081.51172-1.57519l.50684-.27344c.59852-.32298.96379-.95592.94433-1.63574l-.0166-.5752c-.01842-.64043.46957-1.18277 1.1084-1.23144l.57422-.04395c.6781-.05175 1.26871-.48136 1.52734-1.11035l.21973-.53125c.24365-.59257.90929-.88923 1.51269-.67383l.542.19336c.6405.22869 1.35547.07673 1.84767-.39258z" stroke="url(#d)" stroke-width=".6"/><path d="m7.60547 11.3441 3.18193 3.182 6.3639-6.36399" stroke="#fff" stroke-width="3"/></g></g></svg>